<svg width="16" height="20" viewBox="0 0 16 20" fill="none" xmlns="http://www.w3.org/2000/svg">
<g clip-path="url(#clip0_10_291)">
<path d="M12.9492 10.4961C12.9414 9.0625 13.5898 7.98047 14.9023 7.18359C14.168 6.13281 13.0586 5.55469 11.5938 5.44141C10.207 5.33203 8.69141 6.25 8.13672 6.25C7.55078 6.25 6.20703 5.48047 5.15234 5.48047C2.97266 5.51563 0.65625 7.21875 0.65625 10.6836C0.65625 11.707 0.84375 12.7643 1.21875 13.8555C1.71875 15.2891 3.52344 18.8047 5.40625 18.7461C6.39062 18.7227 7.08594 18.0469 8.36719 18.0469C9.60937 18.0469 10.2539 18.7461 11.3516 18.7461C13.25 18.7187 14.8828 15.5234 15.3594 14.0859C12.8125 12.8867 12.9492 10.5703 12.9492 10.4961ZM10.7383 4.08203C11.8047 2.81641 11.707 1.66406 11.6758 1.25C10.7344 1.30469 9.64453 1.89063 9.02344 2.61328C8.33984 3.38672 7.9375 4.34375 8.02344 5.42188C9.04297 5.5 9.97266 4.97656 10.7383 4.08203Z" fill="black"/>
</g>
<defs>
<clipPath id="clip0_10_291">
<path d="M0.5 0H15.5V20H0.5V0Z" fill="white"/>
</clipPath>
</defs>
</svg>
