<svg width="20" height="20" viewBox="0 0 20 20" fill="none" xmlns="http://www.w3.org/2000/svg">
<g clip-path="url(#clip0_10_286)">
<path d="M19.125 10.2266C19.125 15.7539 15.3398 19.6875 9.75 19.6875C4.39063 19.6875 0.0625 15.3594 0.0625 10C0.0625 4.64063 4.39063 0.3125 9.75 0.3125C12.3594 0.3125 14.5547 1.26953 16.2461 2.84766L13.6094 5.38281C10.1602 2.05469 3.74609 4.55469 3.74609 10C3.74609 13.3789 6.44531 16.1172 9.75 16.1172C13.5859 16.1172 15.0234 13.3672 15.25 11.9414H9.75V8.60937H18.9727C19.0625 9.10547 19.125 9.58203 19.125 10.2266Z" fill="black"/>
</g>
<defs>
<clipPath id="clip0_10_286">
<path d="M0.0625 0H19.125V20H0.0625V0Z" fill="white"/>
</clipPath>
</defs>
</svg>
